# xmcd
#
# Track frame offsets:
#	150
#	19647
#	37746
#	54339
#	80398
#	106376
#	122159
#	151297
#	185363
#	218742
#	244929
#	276492
#	306220
#
# Disc length: 4440 seconds
#
# Revision: 1
# Processed by: cddbd v1.5.2PL0 Copyright (c) Steve Scherf et al.
# Submitted via: EZCDAudioConverter 9.1.0.1
#
DISCID=a711560d
DTITLE=100% WAVE - 100% WAVE - VOL. 08
DYEAR=1997
DGENRE=NEW WAVE
TTITLE0=QUEEM - ANOTHER ONE BITES THE... (BY GILMAR SINISTRO)
TTITLE1=SURVIVOR - YEE OF THE TIGER (BY GILMAR SINISTRO)
TTITLE2=J.GEILS BAND - CENTREFOLD (BY GILMAR SINISTRO)
TTITLE3=DIRE STRAITS - SULTAIN OF SWING (BY GILMAR SINISTRO)
TTITLE4=JAKSONS - STATE OF SHOCK (BY GILMAR SINISTRO)
TTITLE5=MEN AT WORK - DOWN WONDER (BY GILMAR SINISTRO)
TTITLE6=CINDY LAUPER - SHE BOP (BY GILMAR SINISTRO)
TTITLE7=DARYL HALL - OUT OF TOUCH (BY GILMAR SINISTRO)
TTITLE8=NEW  ORDER - BLUE MONDAY (BY GILMAR SINISTRO)
TTITLE9=KRAFTWER - MUSIC NOW STOP (BY GILMAR SINISTRO)
TTITLE10=HAROLD F. - AXEL F (BY GILMAR SINISTRO)
TTITLE11=TRIO - DA DA DA (BY GILMAR SINISTRO)
TTITLE12=NAKED EYES - IN THE NAME OF LOVE (BY GILMAR SINISTRO)
EXTD=
EXTT0=
EXTT1=
EXTT2=
EXTT3=
EXTT4=
EXTT5=
EXTT6=
EXTT7=
EXTT8=
EXTT9=
EXTT10=
EXTT11=
EXTT12=
PLAYORDER=
